<svg width="67" height="38" viewBox="0 0 67 38" fill="none" xmlns="http://www.w3.org/2000/svg">
<g clip-path="url(#clip0_1_30)">
<g filter="url(#filter0_i_1_30)">
<path d="M8.21524 10.5092C24.6791 11.8264 10.0692 21.302 6.25773 17.6782C23.2674 8.79397 1.2973 14.3692 6.50933 8.88729C11.7214 3.40534 13.7399 4.55278 17.5514 8.17653C21.3628 11.8003 13.4273 5.02726 8.21524 10.5092Z" fill="#681A1A"/>
</g>
<g filter="url(#filter1_d_1_30)">
<path d="M32.85 15.1V19H31.35V9.625H36.45L36.285 10.87H32.85V13.915H35.85V15.1H32.85ZM40.2029 14.905V17.755H44.3279V19H38.7029V9.625H44.2829L44.1029 10.87H40.2029V13.72H43.7579V14.905H40.2029ZM48.5227 14.905V17.755H52.6477V19H47.0227V9.625H52.6027L52.4227 10.87H48.5227V13.72H52.0777V14.905H48.5227ZM58.1924 10.87V19H56.6924V10.87H54.2174V9.625H60.6674V10.87H58.1924Z" fill="#C5AFAF"/>
</g>
<path d="M18.35 9.625H19.85V19H18.35V9.625ZM29.6041 19H27.9241L22.0741 9.625H23.7541L29.6041 19ZM26.0191 14.905L23.5891 19H21.9541L25.2541 13.525L26.0191 14.905ZM25.4191 13.72L27.8491 9.625H29.4841L26.1991 15.1L25.4191 13.72Z" fill="#681A1A"/>
<g filter="url(#filter2_d_1_30)">
<path d="M10.236 31.096C9.66 31.096 9.176 31.064 8.784 31C8.392 30.928 8.072 30.808 7.824 30.64C7.576 30.464 7.384 30.22 7.248 29.908C7.12 29.588 7.032 29.18 6.984 28.684C6.936 28.188 6.912 27.584 6.912 26.872C6.912 26.16 6.936 25.56 6.984 25.072C7.032 24.576 7.12 24.172 7.248 23.86C7.384 23.54 7.576 23.292 7.824 23.116C8.072 22.94 8.392 22.82 8.784 22.756C9.176 22.684 9.66 22.648 10.236 22.648C10.46 22.648 10.688 22.656 10.92 22.672C11.16 22.688 11.388 22.708 11.604 22.732C11.82 22.756 12.008 22.788 12.168 22.828V23.656C11.984 23.632 11.792 23.612 11.592 23.596C11.4 23.572 11.208 23.556 11.016 23.548C10.824 23.54 10.652 23.536 10.5 23.536C10.036 23.536 9.648 23.556 9.336 23.596C9.024 23.636 8.776 23.716 8.592 23.836C8.408 23.948 8.268 24.128 8.172 24.376C8.084 24.616 8.024 24.94 7.992 25.348C7.96 25.748 7.944 26.256 7.944 26.872C7.944 27.488 7.96 28 7.992 28.408C8.024 28.808 8.084 29.132 8.172 29.38C8.268 29.62 8.408 29.8 8.592 29.92C8.776 30.032 9.024 30.108 9.336 30.148C9.648 30.188 10.036 30.208 10.5 30.208C10.772 30.208 11.068 30.196 11.388 30.172C11.708 30.148 11.984 30.12 12.216 30.088V30.94C12.048 30.972 11.848 30.996 11.616 31.012C11.392 31.036 11.16 31.056 10.92 31.072C10.68 31.088 10.452 31.096 10.236 31.096ZM14.1023 31V22.744H17.8943C18.4143 22.744 18.8263 22.808 19.1303 22.936C19.4423 23.056 19.6703 23.232 19.8143 23.464C19.9663 23.688 20.0663 23.952 20.1143 24.256C20.1623 24.56 20.1863 24.884 20.1863 25.228C20.1863 25.524 20.1583 25.832 20.1023 26.152C20.0543 26.464 19.9383 26.748 19.7543 27.004C19.5783 27.26 19.2983 27.448 18.9143 27.568L20.3063 31H19.2023L17.8343 27.532L18.1223 27.676C18.0663 27.692 17.9983 27.704 17.9183 27.712C17.8383 27.72 17.7303 27.724 17.5943 27.724H15.1343V31H14.1023ZM15.1343 26.824H17.4503C17.8503 26.824 18.1623 26.792 18.3863 26.728C18.6183 26.664 18.7863 26.564 18.8903 26.428C19.0023 26.292 19.0743 26.128 19.1063 25.936C19.1383 25.736 19.1543 25.5 19.1543 25.228C19.1543 24.956 19.1383 24.724 19.1063 24.532C19.0823 24.332 19.0183 24.168 18.9143 24.04C18.8183 23.904 18.6583 23.804 18.4343 23.74C18.2183 23.668 17.9183 23.632 17.5343 23.632H15.1343V26.824ZM22.2703 31V22.744H27.6343V23.632H23.3023V26.38H27.0703V27.28H23.3023V30.112H27.6343V31H22.2703ZM28.6368 31L31.7568 22.744H33.0528L36.1608 31H35.0928L34.2408 28.744H30.5328L29.6808 31H28.6368ZM30.8448 27.844H33.9288L32.4168 23.8H32.3568L30.8448 27.844ZM38.6359 31V23.656H36.0319V22.744H42.2839V23.656H39.6679V31H38.6359ZM43.8445 31V22.744H44.8765V31H43.8445ZM49.4021 31L46.4261 22.744H47.5061L50.0381 29.8H50.0981L52.6301 22.744H53.6741L50.6981 31H49.4021ZM55.2352 31V22.744H60.5992V23.632H56.2672V26.38H60.0352V27.28H56.2672V30.112H60.5992V31H55.2352Z" fill="#373535"/>
</g>
</g>
<defs>
<filter id="filter0_i_1_30" x="5.68796" y="5.11531" width="12.8644" height="17.3834" filterUnits="userSpaceOnUse" color-interpolation-filters="sRGB">
<feFlood flood-opacity="0" result="BackgroundImageFix"/>
<feBlend mode="normal" in="SourceGraphic" in2="BackgroundImageFix" result="shape"/>
<feColorMatrix in="SourceAlpha" type="matrix" values="0 0 0 0 0 0 0 0 0 0 0 0 0 0 0 0 0 0 127 0" result="hardAlpha"/>
<feOffset dy="4"/>
<feGaussianBlur stdDeviation="2"/>
<feComposite in2="hardAlpha" operator="arithmetic" k2="-1" k3="1"/>
<feColorMatrix type="matrix" values="0 0 0 0 1 0 0 0 0 1 0 0 0 0 1 0 0 0 0.33 0"/>
<feBlend mode="normal" in2="shape" result="effect1_innerShadow_1_30"/>
</filter>
<filter id="filter1_d_1_30" x="29.35" y="9.625" width="33.3174" height="13.375" filterUnits="userSpaceOnUse" color-interpolation-filters="sRGB">
<feFlood flood-opacity="0" result="BackgroundImageFix"/>
<feColorMatrix in="SourceAlpha" type="matrix" values="0 0 0 0 0 0 0 0 0 0 0 0 0 0 0 0 0 0 127 0" result="hardAlpha"/>
<feOffset dy="2"/>
<feGaussianBlur stdDeviation="1"/>
<feComposite in2="hardAlpha" operator="out"/>
<feColorMatrix type="matrix" values="0 0 0 0 0 0 0 0 0 0 0 0 0 0 0 0 0 0 0.25 0"/>
<feBlend mode="normal" in2="BackgroundImageFix" result="effect1_dropShadow_1_30"/>
<feBlend mode="normal" in="SourceGraphic" in2="effect1_dropShadow_1_30" result="shape"/>
</filter>
<filter id="filter2_d_1_30" x="4.91199" y="22.148" width="57.6872" height="12.448" filterUnits="userSpaceOnUse" color-interpolation-filters="sRGB">
<feFlood flood-opacity="0" result="BackgroundImageFix"/>
<feColorMatrix in="SourceAlpha" type="matrix" values="0 0 0 0 0 0 0 0 0 0 0 0 0 0 0 0 0 0 127 0" result="hardAlpha"/>
<feOffset dy="1.5"/>
<feGaussianBlur stdDeviation="1"/>
<feComposite in2="hardAlpha" operator="out"/>
<feColorMatrix type="matrix" values="0 0 0 0 0 0 0 0 0 0 0 0 0 0 0 0 0 0 0.25 0"/>
<feBlend mode="normal" in2="BackgroundImageFix" result="effect1_dropShadow_1_30"/>
<feBlend mode="normal" in="SourceGraphic" in2="effect1_dropShadow_1_30" result="shape"/>
</filter>
<clipPath id="clip0_1_30">
<rect width="67" height="38" fill="white"/>
</clipPath>
</defs>
</svg>
