<svg width="114" height="63" viewBox="0 0 114 63" fill="none" xmlns="http://www.w3.org/2000/svg">
<path fill-rule="evenodd" clip-rule="evenodd" d="M104 9H10V54H104V9ZM22.6887 15.4148C23.2948 15.8125 23.6404 16.3712 23.7257 17.0909H25.4302C25.4065 16.357 25.1793 15.7012 24.7484 15.1236C24.3223 14.5459 23.7446 14.0914 23.0154 13.7599C22.2863 13.4238 21.4529 13.2557 20.5154 13.2557C19.5874 13.2557 18.747 13.4261 17.9941 13.767C17.246 14.1032 16.6494 14.5767 16.2044 15.1875C15.764 15.7936 15.5439 16.5038 15.5439 17.3182C15.5439 18.2983 15.8753 19.0914 16.5382 19.6974C17.2011 20.3035 18.1007 20.7699 19.237 21.0966L21.0268 21.608C21.5382 21.75 22.014 21.9157 22.4544 22.1051C22.8947 22.2945 23.2498 22.5407 23.5197 22.8438C23.7896 23.1468 23.9245 23.5398 23.9245 24.0227C23.9245 24.553 23.7683 25.017 23.4558 25.4148C23.1433 25.8077 22.7195 26.1155 22.1845 26.3381C21.6494 26.5558 21.0457 26.6648 20.3734 26.6648C19.7957 26.6648 19.256 26.5795 18.7541 26.4091C18.2569 26.2339 17.845 25.9688 17.5183 25.6136C17.1963 25.2538 17.0117 24.7993 16.9643 24.25H15.1461C15.2029 25.0455 15.4468 25.7438 15.8777 26.3452C16.3133 26.9465 16.9099 27.4152 17.6674 27.7514C18.4297 28.0876 19.3317 28.2557 20.3734 28.2557C21.4908 28.2557 22.4402 28.0687 23.2214 27.6946C24.0074 27.3206 24.604 26.8163 25.0112 26.1818C25.4231 25.5474 25.6291 24.8371 25.6291 24.0511C25.6291 23.3693 25.4894 22.794 25.2101 22.3253C24.9307 21.8565 24.5756 21.473 24.1447 21.1747C23.7186 20.8717 23.2711 20.6326 22.8024 20.4574C22.3384 20.2822 21.917 20.1449 21.5382 20.0455L20.0609 19.6477C19.791 19.5767 19.4951 19.4844 19.1731 19.3707C18.8511 19.2524 18.5434 19.1032 18.2498 18.9233C17.9563 18.7386 17.7148 18.509 17.5254 18.2344C17.3407 17.955 17.2484 17.6212 17.2484 17.233C17.2484 16.7689 17.381 16.3546 17.6461 15.9901C17.916 15.6255 18.2901 15.339 18.7683 15.1307C19.2512 14.9224 19.8147 14.8182 20.4586 14.8182C21.3393 14.8182 22.0827 15.017 22.6887 15.4148ZM30.2864 28V13.4545H28.525V28H30.2864ZM38.4203 19.5057L34.6703 13.4545H32.5964L37.2839 20.7273L32.5964 28H34.6703L38.4203 22.0625H38.5339L42.2839 28H44.3578L39.7839 20.7273L44.3578 13.4545H42.2839L38.5339 19.5057H38.4203ZM60.9966 13.4545H52.275V28H54.0364V21.4943H60.3432V19.9318H54.0364V15.017H60.9966V13.4545ZM72.7917 13.4545H64.0133V28H72.9054V26.4375H65.7747V21.4943H72.3372V19.9318H65.7747V15.017H72.7917V13.4545ZM84.7449 13.4545H75.9664V28H84.8585V26.4375H77.7278V21.4943H84.2903V19.9318H77.7278V15.017H84.7449V13.4545ZM87.1241 13.4545V15.017H91.698V28H93.4593V15.017H98.0332V13.4545H87.1241ZM25.3072 40.25H26.8483C26.7323 39.5954 26.521 39.0133 26.2145 38.5037C25.9079 37.99 25.5267 37.555 25.071 37.1987C24.6153 36.8383 24.1036 36.5648 23.536 36.3784C22.9726 36.192 22.3698 36.0987 21.7276 36.0987C20.6421 36.0987 19.6768 36.3639 18.8317 36.8942C17.9865 37.4245 17.3215 38.1785 16.8368 39.1562C16.3521 40.134 16.1097 41.294 16.1097 42.6364C16.1097 43.9787 16.3521 45.1387 16.8368 46.1165C17.3215 47.0942 17.9865 47.8483 18.8317 48.3785C19.6768 48.9089 20.6421 49.174 21.7276 49.174C22.3698 49.174 22.9726 49.0808 23.536 48.8943C24.1036 48.7079 24.6153 48.4365 25.071 48.0803C25.5267 47.7198 25.9079 47.2827 26.2145 46.769C26.521 46.2552 26.7323 45.6732 26.8483 45.0227H25.3072C25.216 45.4619 25.0565 45.8513 24.8286 46.191C24.6049 46.5266 24.3315 46.8104 24.0083 47.0424C23.6893 47.2703 23.3351 47.4423 22.9456 47.5582C22.5562 47.6743 22.1502 47.7322 21.7276 47.7322C20.957 47.7322 20.2589 47.5375 19.6333 47.1481C19.0119 46.7587 18.5168 46.1848 18.1481 45.4267C17.7835 44.6685 17.6012 43.7384 17.6012 42.6364C17.6012 41.5343 17.7835 40.6042 18.1481 39.8461C18.5168 39.0879 19.0119 38.5141 19.6333 38.1246C20.2589 37.7352 20.957 37.5405 21.7276 37.5405C22.1502 37.5405 22.5562 37.5985 22.9456 37.7145C23.3351 37.8305 23.6893 38.0045 24.0083 38.2365C24.3315 38.4644 24.6049 38.7461 24.8286 39.0817C25.0565 39.4172 25.216 39.8067 25.3072 40.25ZM33.6392 36.2727H29.3388V49H30.88V44.0284H33.6641C33.7743 44.0284 33.8824 44.0263 33.9882 44.0222L36.6719 49H38.4617L35.5866 43.7519C35.7667 43.6906 35.9358 43.6191 36.0939 43.5375C36.7278 43.2061 37.1981 42.7503 37.5046 42.1703C37.8112 41.5903 37.9645 40.9253 37.9645 40.1754C37.9645 39.4255 37.8112 38.7565 37.5046 38.1682C37.1981 37.5798 36.7258 37.1179 36.0877 36.7823C35.4497 36.4426 34.6335 36.2727 33.6392 36.2727ZM30.88 42.6364H33.6144C34.2938 42.6364 34.8407 42.5369 35.255 42.3381C35.6734 42.1392 35.9759 41.8575 36.1623 41.4929C36.3529 41.1241 36.4482 40.685 36.4482 40.1754C36.4482 39.6658 36.3529 39.2205 36.1623 38.8393C35.9717 38.4581 35.6672 38.164 35.2488 37.9568C34.8303 37.7455 34.2772 37.6399 33.5895 37.6399H30.88V42.6364ZM48.2138 36.2727H40.5326V49H48.3132V47.6328H42.0738V43.3076H47.816V41.9404H42.0738V37.6399H48.2138V36.2727ZM49.8979 49H51.5136L52.7932 45.3956H57.9401L59.2196 49H60.8354L56.1621 36.2727H54.5712L49.8979 49ZM57.4548 44.0284L55.4163 38.2862H55.3169L53.2785 44.0284H57.4548ZM60.635 36.2727V37.6399H64.6371V49H66.1783V37.6399H70.1804V36.2727H60.635ZM72.559 49H74.1002V36.2727H72.559V49ZM81.4908 46.9865L77.7124 36.2727H76.0966L80.7699 49H82.3608L87.0341 36.2727H85.4183L81.6399 46.9865H81.4908ZM96.6976 36.2727H89.0165V49H96.7971V47.6328H90.5577V43.3076H96.2999V41.9404H90.5577V37.6399H96.6976V36.2727Z" fill="url(#paint0_linear_2_23)"/>
<rect x="5.5" y="4.5" width="103" height="54" stroke="url(#paint1_linear_2_23)"/>
<defs>
<linearGradient id="paint0_linear_2_23" x1="47.5" y1="25" x2="118" y2="54" gradientUnits="userSpaceOnUse">
<stop stop-color="#5E1C56"/>
<stop offset="0.458333" stop-color="#D55088"/>
<stop offset="0.953125" stop-color="#FFD770"/>
</linearGradient>
<linearGradient id="paint1_linear_2_23" x1="16.5" y1="9.5" x2="74" y2="49" gradientUnits="userSpaceOnUse">
<stop stop-color="#5F1D57"/>
<stop offset="0.296875" stop-color="#B9447D"/>
<stop offset="0.864583" stop-opacity="0"/>
<stop offset="0.961739" stop-opacity="0"/>
</linearGradient>
</defs>
</svg>
