<svg width="104" height="54" viewBox="0 0 104 54" fill="none" xmlns="http://www.w3.org/2000/svg">
<g clip-path="url(#clip0_4_7)">
<g filter="url(#filter0_d_4_7)">
<path d="M19.3414 14.8118C19.2695 14.1731 18.9726 13.6783 18.4508 13.3274C17.929 12.9721 17.2723 12.7944 16.4806 12.7944C15.9139 12.7944 15.4236 12.8844 15.0098 13.0643C14.5959 13.2397 14.2743 13.4826 14.0449 13.793C13.82 14.0988 13.7075 14.4474 13.7075 14.8388C13.7075 15.1671 13.784 15.4505 13.937 15.6889C14.0944 15.9273 14.2991 16.1275 14.5509 16.2894C14.8073 16.4469 15.0817 16.5795 15.3741 16.6875C15.6665 16.791 15.9476 16.8764 16.2175 16.9439L17.5669 17.2947C18.0077 17.4027 18.4598 17.5489 18.9231 17.7333C19.3864 17.9177 19.816 18.1606 20.2118 18.462C20.6076 18.7634 20.927 19.1367 21.1699 19.582C21.4173 20.0273 21.541 20.5604 21.541 21.1811C21.541 21.9638 21.3386 22.6587 20.9338 23.266C20.5334 23.8732 19.9509 24.3523 19.1862 24.7031C18.4261 25.054 17.5062 25.2294 16.4267 25.2294C15.3921 25.2294 14.497 25.0652 13.7413 24.7369C12.9856 24.4085 12.3941 23.9429 11.9668 23.3402C11.5395 22.733 11.3033 22.0133 11.2583 21.1811H13.3499C13.3904 21.6804 13.5524 22.0965 13.8357 22.4293C14.1236 22.7577 14.4902 23.0028 14.9355 23.1648C15.3853 23.3222 15.8779 23.4009 16.4132 23.4009C17.0024 23.4009 17.5264 23.3087 17.9852 23.1243C18.4486 22.9354 18.8129 22.6745 19.0783 22.3416C19.3437 22.0043 19.4764 21.6107 19.4764 21.1609C19.4764 20.7515 19.3594 20.4164 19.1255 20.1555C18.8961 19.8946 18.5835 19.6787 18.1877 19.5078C17.7963 19.3369 17.3533 19.1862 16.8585 19.0558L15.2257 18.6104C14.1191 18.3091 13.242 17.866 12.5943 17.2812C11.951 16.6965 11.6294 15.9228 11.6294 14.9602C11.6294 14.1641 11.8453 13.4691 12.2772 12.8754C12.709 12.2816 13.2937 11.8205 14.0314 11.4922C14.7691 11.1593 15.6013 10.9929 16.5279 10.9929C17.4635 10.9929 18.2889 11.1571 19.0041 11.4854C19.7238 11.8138 20.2905 12.2659 20.7044 12.8416C21.1182 13.4129 21.3341 14.0696 21.3521 14.8118H19.3414ZM26.6873 11.1818V25H24.6024V11.1818H26.6873ZM31.7441 11.1818L35.0502 16.5863H35.1582L38.4643 11.1818H40.8798L36.5751 18.0909L40.9068 25H38.4778L35.1582 19.6697H35.0502L31.7306 25H29.3016L33.7075 18.0909L29.3286 11.1818H31.7441ZM49.1161 25V11.1818H57.685V12.9766H51.201V17.1868H57.071V18.9748H51.201V25H49.1161ZM60.8189 25V11.1818H69.4823V12.9766H62.9038V17.1868H69.0302V18.9748H62.9038V23.2053H69.5632V25H60.8189ZM72.8372 25V11.1818H81.5005V12.9766H74.922V17.1868H81.0484V18.9748H74.922V23.2053H81.5815V25H72.8372ZM84.1739 12.9766V11.1818H94.8682V12.9766H90.5567V25H88.4786V12.9766H84.1739Z" fill="url(#paint0_linear_4_7)"/>
</g>
<rect x="1.5" y="1.5" width="101" height="51" stroke="url(#paint1_linear_4_7)" stroke-width="3"/>
<g filter="url(#filter1_i_4_7)">
<path d="M20.6883 34.7285H17.9664C17.9166 34.3764 17.8151 34.0636 17.6618 33.7901C17.5086 33.5125 17.3118 33.2764 17.0715 33.0817C16.8312 32.887 16.5536 32.7378 16.2387 32.6342C15.928 32.5307 15.5903 32.4789 15.2258 32.4789C14.567 32.4789 13.9932 32.6425 13.5044 32.9698C13.0155 33.293 12.6364 33.7653 12.3671 34.3867C12.0978 35.004 11.9632 35.7539 11.9632 36.6364C11.9632 37.5437 12.0978 38.306 12.3671 38.9233C12.6405 39.5406 13.0217 40.0067 13.5106 40.3216C13.9994 40.6364 14.565 40.7939 15.2071 40.7939C15.5676 40.7939 15.9011 40.7462 16.2077 40.6509C16.5184 40.5556 16.7939 40.4168 17.0342 40.2346C17.2745 40.0481 17.4733 39.8223 17.6308 39.5572C17.7923 39.292 17.9042 38.9896 17.9664 38.6499L20.6883 38.6623C20.6179 39.2464 20.4418 39.8099 20.1601 40.3526C19.8825 40.8912 19.5075 41.3739 19.0352 41.8006C18.5671 42.2232 18.0078 42.5588 17.3573 42.8074C16.711 43.0518 15.9798 43.174 15.1636 43.174C14.0284 43.174 13.0134 42.9171 12.1185 42.4034C11.2278 41.8897 10.5235 41.146 10.0056 40.1724C9.49186 39.1988 9.235 38.0201 9.235 36.6364C9.235 35.2485 9.49601 34.0677 10.018 33.0941C10.54 32.1205 11.2485 31.3789 12.1434 30.8693C13.0383 30.3556 14.045 30.0987 15.1636 30.0987C15.9011 30.0987 16.5847 30.2023 17.2144 30.4094C17.8483 30.6166 18.4097 30.919 18.8985 31.3168C19.3874 31.7103 19.7851 32.193 20.0917 32.7647C20.4024 33.3365 20.6013 33.9911 20.6883 34.7285ZM22.6179 43V30.2727H27.6392C28.6004 30.2727 29.4207 30.4447 30.1001 30.7885C30.7837 31.1283 31.3037 31.6109 31.66 32.2365C32.0204 32.858 32.2006 33.5892 32.2006 34.4302C32.2006 35.2754 32.0183 36.0025 31.6538 36.6115C31.2892 37.2164 30.7609 37.6804 30.0691 38.0036C29.3813 38.3267 28.5486 38.4883 27.5708 38.4883H24.2088V36.3256H27.1358C27.6496 36.3256 28.0763 36.2552 28.416 36.1143C28.7557 35.9735 29.0085 35.7622 29.1742 35.4805C29.344 35.1987 29.429 34.8487 29.429 34.4302C29.429 34.0076 29.344 33.6513 29.1742 33.3613C29.0085 33.0713 28.7537 32.8517 28.4098 32.7026C28.0701 32.5493 27.6413 32.4727 27.1234 32.4727H25.3088V43H22.6179ZM29.4911 37.2081L32.6543 43H29.6838L26.589 37.2081H29.4911ZM34.1023 43V30.2727H42.6783V32.4913H36.7931V35.524H42.237V37.7425H36.7931V40.7814H42.7031V43H34.1023ZM47.0113 43H44.1278L48.5214 30.2727H51.9891L56.3766 43H53.493L50.305 33.1811H50.2056L47.0113 43ZM46.8311 37.9973H53.6422V40.0978H46.8311V37.9973ZM55.8685 32.4913V30.2727H66.3213V32.4913H62.4248V43H59.765V32.4913H55.8685ZM70.7336 30.2727V43H68.0427V30.2727H70.7336ZM75.2468 30.2727L78.323 39.9425H78.4411L81.5235 30.2727H84.5064L80.119 43H76.6513L72.2577 30.2727H75.2468ZM86.0383 43V30.2727H94.6143V32.4913H88.7292V35.524H94.1731V37.7425H88.7292V40.7814H94.6392V43H86.0383Z" fill="url(#paint2_linear_4_7)"/>
</g>
<path d="M20.6883 34.7285V35.2285H21.2508L21.1849 34.6699L20.6883 34.7285ZM17.9664 34.7285L17.4713 34.7984L17.532 35.2285H17.9664V34.7285ZM17.6618 33.7901L17.2241 34.0318L17.2257 34.0346L17.6618 33.7901ZM17.0715 33.0817L16.7567 33.4701L16.7567 33.4701L17.0715 33.0817ZM16.2387 32.6342L16.0806 33.1086L16.0825 33.1092L16.2387 32.6342ZM13.5044 32.9698L13.7801 33.3869L13.7825 33.3853L13.5044 32.9698ZM12.3671 34.3867L12.8254 34.5866L12.8259 34.5855L12.3671 34.3867ZM12.3671 38.9233L11.9088 39.1232L11.9099 39.1258L12.3671 38.9233ZM13.5106 40.3216L13.2398 40.7419L13.2398 40.7419L13.5106 40.3216ZM16.2077 40.6509L16.0611 40.1729L16.0593 40.1735L16.2077 40.6509ZM17.0342 40.2346L17.3364 40.6329L17.3407 40.6296L17.0342 40.2346ZM17.6308 39.5572L17.2038 39.297L17.2008 39.3019L17.6308 39.5572ZM17.9664 38.6499L17.9686 38.1499L17.5499 38.148L17.4745 38.5599L17.9664 38.6499ZM20.6883 38.6623L21.1847 38.7221L21.2519 38.1649L20.6906 38.1623L20.6883 38.6623ZM20.1601 40.3526L19.7163 40.1223L19.7156 40.1236L20.1601 40.3526ZM19.0352 41.8006L19.3703 42.1718L19.3704 42.1716L19.0352 41.8006ZM17.3573 42.8074L17.5342 43.275L17.5358 43.2744L17.3573 42.8074ZM12.1185 42.4034L11.8687 42.8365L11.8696 42.837L12.1185 42.4034ZM10.0056 40.1724L9.56338 40.4057L9.56416 40.4072L10.0056 40.1724ZM10.018 33.0941L10.4587 33.3304L10.4587 33.3304L10.018 33.0941ZM12.1434 30.8693L12.3908 31.3038L12.3923 31.3029L12.1434 30.8693ZM17.2144 30.4094L17.0582 30.8844L17.0591 30.8847L17.2144 30.4094ZM18.8985 31.3168L18.583 31.7046L18.585 31.7062L18.8985 31.3168ZM20.0917 32.7647L19.6511 33.001L19.6524 33.0035L20.0917 32.7647ZM20.6883 34.2285H17.9664V35.2285H20.6883V34.2285ZM18.4614 34.6586C18.4042 34.2533 18.2854 33.8799 18.098 33.5456L17.2257 34.0346C17.3449 34.2472 17.4291 34.4994 17.4713 34.7984L18.4614 34.6586ZM18.0995 33.5484C17.9159 33.2159 17.6779 32.9295 17.3863 32.6932L16.7567 33.4701C16.9457 33.6233 17.1012 33.8092 17.2241 34.0318L18.0995 33.5484ZM17.3863 32.6932C17.0955 32.4576 16.7633 32.2804 16.395 32.1593L16.0825 33.1092C16.3439 33.1952 16.5668 33.3163 16.7567 33.4701L17.3863 32.6932ZM16.3968 32.1599C16.0297 32.0375 15.6381 31.9789 15.2258 31.9789V32.9789C15.5426 32.9789 15.8263 33.0238 16.0806 33.1086L16.3968 32.1599ZM15.2258 31.9789C14.4803 31.9789 13.807 32.1655 13.2262 32.5543L13.7825 33.3853C14.1794 33.1196 14.6538 32.9789 15.2258 32.9789V31.9789ZM13.2286 32.5527C12.6469 32.9373 12.21 33.4917 11.9083 34.1879L12.8259 34.5855C13.0628 34.0389 13.3841 33.6487 13.7801 33.3869L13.2286 32.5527ZM11.9088 34.1868C11.6049 34.8835 11.4632 35.7055 11.4632 36.6364H12.4632C12.4632 35.8024 12.5907 35.1246 12.8254 34.5866L11.9088 34.1868ZM11.4632 36.6364C11.4632 37.5899 11.6042 38.425 11.9088 39.1232L12.8254 38.7234C12.5914 38.187 12.4632 37.4974 12.4632 36.6364H11.4632ZM11.9099 39.1258C12.2164 39.8176 12.6563 40.3661 13.2398 40.7419L13.7813 39.9012C13.3871 39.6473 13.0647 39.2636 12.8243 38.7208L11.9099 39.1258ZM13.2398 40.7419C13.8177 41.1141 14.4793 41.2939 15.2071 41.2939V40.2939C14.6506 40.2939 14.1811 40.1587 13.7813 39.9012L13.2398 40.7419ZM15.2071 41.2939C15.6118 41.2939 15.9959 41.2403 16.3561 41.1284L16.0593 40.1735C15.8062 40.2521 15.5233 40.2939 15.2071 40.2939V41.2939ZM16.3542 41.129C16.7167 41.0178 17.0458 40.8533 17.3364 40.6329L16.732 39.8362C16.542 39.9803 16.32 40.0935 16.0611 40.1729L16.3542 41.129ZM17.3407 40.6296C17.6312 40.4042 17.8717 40.1307 18.0607 39.8124L17.2008 39.3019C17.075 39.5139 16.9177 39.6921 16.7277 39.8395L17.3407 40.6296ZM18.0577 39.8174C18.2546 39.4944 18.3863 39.133 18.4582 38.7398L17.4745 38.5599C17.4222 38.8461 17.3301 39.0897 17.2038 39.297L18.0577 39.8174ZM17.9641 39.1499L20.686 39.1623L20.6906 38.1623L17.9686 38.1499L17.9641 39.1499ZM20.1919 38.6024C20.1289 39.1247 19.9715 39.6306 19.7163 40.1223L20.6038 40.583C20.9121 39.9892 21.1068 39.3682 21.1847 38.7221L20.1919 38.6024ZM19.7156 40.1236C19.467 40.606 19.13 41.0412 18.7 41.4296L19.3704 42.1716C19.8851 41.7066 20.298 41.1764 20.6045 40.5817L19.7156 40.1236ZM18.7002 41.4294C18.2824 41.8066 17.7776 42.1115 17.1788 42.3403L17.5358 43.2744C18.2379 43.0061 18.8518 42.6398 19.3703 42.1718L18.7002 41.4294ZM17.1805 42.3397C16.5999 42.5593 15.9301 42.674 15.1636 42.674V43.674C16.0295 43.674 16.8222 43.5443 17.5342 43.275L17.1805 42.3397ZM15.1636 42.674C14.1068 42.674 13.1792 42.4358 12.3675 41.9698L11.8696 42.837C12.8477 43.3985 13.9501 43.674 15.1636 43.674V42.674ZM12.3683 41.9703C11.5647 41.5068 10.9242 40.8347 10.447 39.9376L9.56416 40.4072C10.1227 41.4573 10.8908 42.2726 11.8687 42.8365L12.3683 41.9703ZM10.4478 39.9391C9.98055 39.0535 9.735 37.9593 9.735 36.6364H8.735C8.735 38.081 9.00318 39.3441 9.56338 40.4057L10.4478 39.9391ZM9.735 36.6364C9.735 35.3102 9.98436 34.215 10.4587 33.3304L9.57737 32.8578C9.00765 33.9204 8.735 35.1867 8.735 36.6364H9.735ZM10.4587 33.3304C10.9396 32.4334 11.5837 31.7634 12.3908 31.3038L11.896 30.4348C10.9133 30.9944 10.1405 31.8076 9.57737 32.8578L10.4587 33.3304ZM12.3923 31.3029C13.2051 30.8363 14.1248 30.5987 15.1636 30.5987V29.5987C13.9652 29.5987 12.8714 29.8749 11.8944 30.4357L12.3923 31.3029ZM15.1636 30.5987C15.8539 30.5987 16.4842 30.6956 17.0582 30.8844L17.3706 29.9345C16.6852 29.709 15.9482 29.5987 15.1636 29.5987V30.5987ZM17.0591 30.8847C17.6381 31.0739 18.1444 31.3478 18.583 31.7046L19.2141 30.9289C18.6749 30.4902 18.0585 30.1593 17.3697 29.9342L17.0591 30.8847ZM18.585 31.7062C19.0199 32.0564 19.3751 32.4863 19.6511 33.001L20.5324 32.5284C20.1952 31.8997 19.7549 31.3643 19.2121 30.9273L18.585 31.7062ZM19.6524 33.0035C19.9288 33.512 20.1111 34.104 20.1917 34.7871L21.1849 34.6699C21.0914 33.8782 20.8761 33.1609 20.531 32.526L19.6524 33.0035ZM22.6179 43H22.1179V43.5H22.6179V43ZM22.6179 30.2727V29.7727H22.1179V30.2727H22.6179ZM30.1001 30.7885L29.8744 31.2347L29.8776 31.2363L30.1001 30.7885ZM31.66 32.2365L31.2255 32.484L31.2275 32.4874L31.66 32.2365ZM31.6538 36.6115L32.082 36.8696L32.0828 36.8683L31.6538 36.6115ZM30.0691 38.0036L29.8575 37.5505L29.8564 37.551L30.0691 38.0036ZM24.2088 38.4883H23.7088V38.9883H24.2088V38.4883ZM24.2088 36.3256V35.8256H23.7088V36.3256H24.2088ZM28.416 36.1143L28.6075 36.5762L28.6075 36.5762L28.416 36.1143ZM29.1742 35.4805L28.746 35.2223L28.7432 35.227L29.1742 35.4805ZM29.1742 33.3613L28.74 33.6094L28.7427 33.614L29.1742 33.3613ZM28.4098 32.7026L28.2041 33.1584L28.2108 33.1613L28.4098 32.7026ZM25.3088 32.4727V31.9727H24.8088V32.4727H25.3088ZM25.3088 43V43.5H25.8088V43H25.3088ZM29.4911 37.2081L29.9299 36.9684L29.7878 36.7081H29.4911V37.2081ZM32.6543 43V43.5H33.4971L33.0931 42.7603L32.6543 43ZM29.6838 43L29.2428 43.2356L29.384 43.5H29.6838V43ZM26.589 37.2081V36.7081H25.7549L26.148 37.4437L26.589 37.2081ZM23.1179 43V30.2727H22.1179V43H23.1179ZM22.6179 30.7727H27.6392V29.7727H22.6179V30.7727ZM27.6392 30.7727C28.542 30.7727 29.2808 30.9343 29.8744 31.2346L30.3259 30.3424C29.5606 29.9551 28.6588 29.7727 27.6392 29.7727V30.7727ZM29.8776 31.2363C30.4779 31.5346 30.9214 31.95 31.2255 32.484L32.0945 31.9891C31.6859 31.2718 31.0896 30.7219 30.3227 30.3408L29.8776 31.2363ZM31.2275 32.4874C31.5367 33.0205 31.7006 33.6621 31.7006 34.4302H32.7006C32.7006 33.5163 32.5042 32.6954 32.0925 31.9856L31.2275 32.4874ZM31.7006 34.4302C31.7006 35.2023 31.5347 35.8369 31.2248 36.3547L32.0828 36.8683C32.502 36.168 32.7006 35.3485 32.7006 34.4302H31.7006ZM31.2255 36.3534C30.9164 36.8663 30.467 37.2658 29.8575 37.5505L30.2807 38.4566C31.0549 38.095 31.662 37.5665 32.082 36.8696L31.2255 36.3534ZM29.8564 37.551C29.2514 37.8353 28.4954 37.9883 27.5708 37.9883V38.9883C28.6018 38.9883 29.5112 38.8181 30.2817 38.4561L29.8564 37.551ZM27.5708 37.9883H24.2088V38.9883H27.5708V37.9883ZM24.7088 38.4883V36.3256H23.7088V38.4883H24.7088ZM24.2088 36.8256H27.1358V35.8256H24.2088V36.8256ZM27.1358 36.8256C27.691 36.8256 28.1881 36.7501 28.6075 36.5762L28.2245 35.6525C27.9645 35.7603 27.6081 35.8256 27.1358 35.8256V36.8256ZM28.6075 36.5762C29.0344 36.3992 29.3775 36.1209 29.6052 35.734L28.7432 35.227C28.6394 35.4035 28.4771 35.5477 28.2245 35.6525L28.6075 36.5762ZM29.6024 35.7386C29.8304 35.3605 29.929 34.9152 29.929 34.4302H28.929C28.929 34.7821 28.8577 35.037 28.746 35.2223L29.6024 35.7386ZM29.929 34.4302C29.929 33.9414 29.8306 33.4927 29.6056 33.1086L28.7427 33.614C28.8575 33.81 28.929 34.0739 28.929 34.4302H29.929ZM29.6083 33.1133C29.3825 32.7181 29.039 32.4305 28.6088 32.2439L28.2108 33.1613C28.4683 33.273 28.6344 33.4245 28.7401 33.6094L29.6083 33.1133ZM28.6154 32.2468C28.1911 32.0554 27.6863 31.9727 27.1234 31.9727V32.9727C27.5962 32.9727 27.9491 33.0432 28.2042 33.1583L28.6154 32.2468ZM27.1234 31.9727H25.3088V32.9727H27.1234V31.9727ZM24.8088 32.4727V43H25.8088V32.4727H24.8088ZM25.3088 42.5H22.6179V43.5H25.3088V42.5ZM29.0523 37.4478L32.2155 43.2397L33.0931 42.7603L29.9299 36.9684L29.0523 37.4478ZM32.6543 42.5H29.6838V43.5H32.6543V42.5ZM30.1248 42.7644L27.0299 36.9725L26.148 37.4437L29.2428 43.2356L30.1248 42.7644ZM26.589 37.7081H29.4911V36.7081H26.589V37.7081ZM34.1023 43H33.6023V43.5H34.1023V43ZM34.1023 30.2727V29.7727H33.6023V30.2727H34.1023ZM42.6783 30.2727H43.1783V29.7727H42.6783V30.2727ZM42.6783 32.4913V32.9913H43.1783V32.4913H42.6783ZM36.7931 32.4913V31.9913H36.2931V32.4913H36.7931ZM36.7931 35.524H36.2931V36.024H36.7931V35.524ZM42.237 35.524H42.737V35.024H42.237V35.524ZM42.237 37.7425V38.2425H42.737V37.7425H42.237ZM36.7931 37.7425V37.2425H36.2931V37.7425H36.7931ZM36.7931 40.7814H36.2931V41.2814H36.7931V40.7814ZM42.7031 40.7814H43.2031V40.2814H42.7031V40.7814ZM42.7031 43V43.5H43.2031V43H42.7031ZM34.6023 43V30.2727H33.6023V43H34.6023ZM34.1023 30.7727H42.6783V29.7727H34.1023V30.7727ZM42.1783 30.2727V32.4913H43.1783V30.2727H42.1783ZM42.6783 31.9913H36.7931V32.9913H42.6783V31.9913ZM36.2931 32.4913V35.524H37.2931V32.4913H36.2931ZM36.7931 36.024H42.237V35.024H36.7931V36.024ZM41.737 35.524V37.7425H42.737V35.524H41.737ZM42.237 37.2425H36.7931V38.2425H42.237V37.2425ZM36.2931 37.7425V40.7814H37.2931V37.7425H36.2931ZM36.7931 41.2814H42.7031V40.2814H36.7931V41.2814ZM42.2031 40.7814V43H43.2031V40.7814H42.2031ZM42.7031 42.5H34.1023V43.5H42.7031V42.5ZM47.0113 43V43.5H47.3745L47.4868 43.1547L47.0113 43ZM44.1278 43L43.6552 42.8368L43.4262 43.5H44.1278V43ZM48.5214 30.2727V29.7727H48.1651L48.0488 30.1096L48.5214 30.2727ZM51.9891 30.2727L52.4618 30.1098L52.3456 29.7727H51.9891V30.2727ZM56.3766 43V43.5H57.0778L56.8493 42.837L56.3766 43ZM53.493 43L53.0175 43.1544L53.1297 43.5H53.493V43ZM50.305 33.1811L50.7806 33.0267L50.6684 32.6811H50.305V33.1811ZM50.2056 33.1811V32.6811H49.8424L49.7301 33.0264L50.2056 33.1811ZM46.8311 37.9973V37.4973H46.3311V37.9973H46.8311ZM53.6422 37.9973H54.1422V37.4973H53.6422V37.9973ZM53.6422 40.0978V40.5978H54.1422V40.0978H53.6422ZM46.8311 40.0978H46.3311V40.5978H46.8311V40.0978ZM47.0113 42.5H44.1278V43.5H47.0113V42.5ZM44.6004 43.1632L48.9941 30.4359L48.0488 30.1096L43.6552 42.8368L44.6004 43.1632ZM48.5214 30.7727H51.9891V29.7727H48.5214V30.7727ZM51.5164 30.4357L55.9039 43.163L56.8493 42.837L52.4618 30.1098L51.5164 30.4357ZM56.3766 42.5H53.493V43.5H56.3766V42.5ZM53.9686 42.8456L50.7806 33.0267L49.8294 33.3355L53.0175 43.1544L53.9686 42.8456ZM50.305 32.6811H50.2056V33.6811H50.305V32.6811ZM49.7301 33.0264L46.5358 42.8453L47.4868 43.1547L50.681 33.3358L49.7301 33.0264ZM46.8311 38.4973H53.6422V37.4973H46.8311V38.4973ZM53.1422 37.9973V40.0978H54.1422V37.9973H53.1422ZM53.6422 39.5978H46.8311V40.5978H53.6422V39.5978ZM47.3311 40.0978V37.9973H46.3311V40.0978H47.3311ZM55.8685 32.4913H55.3685V32.9913H55.8685V32.4913ZM55.8685 30.2727V29.7727H55.3685V30.2727H55.8685ZM66.3213 30.2727H66.8213V29.7727H66.3213V30.2727ZM66.3213 32.4913V32.9913H66.8213V32.4913H66.3213ZM62.4248 32.4913V31.9913H61.9248V32.4913H62.4248ZM62.4248 43V43.5H62.9248V43H62.4248ZM59.765 43H59.265V43.5H59.765V43ZM59.765 32.4913H60.265V31.9913H59.765V32.4913ZM56.3685 32.4913V30.2727H55.3685V32.4913H56.3685ZM55.8685 30.7727H66.3213V29.7727H55.8685V30.7727ZM65.8213 30.2727V32.4913H66.8213V30.2727H65.8213ZM66.3213 31.9913H62.4248V32.9913H66.3213V31.9913ZM61.9248 32.4913V43H62.9248V32.4913H61.9248ZM62.4248 42.5H59.765V43.5H62.4248V42.5ZM60.265 43V32.4913H59.265V43H60.265ZM59.765 31.9913H55.8685V32.9913H59.765V31.9913ZM70.7336 30.2727H71.2336V29.7727H70.7336V30.2727ZM70.7336 43V43.5H71.2336V43H70.7336ZM68.0427 43H67.5427V43.5H68.0427V43ZM68.0427 30.2727V29.7727H67.5427V30.2727H68.0427ZM70.2336 30.2727V43H71.2336V30.2727H70.2336ZM70.7336 42.5H68.0427V43.5H70.7336V42.5ZM68.5427 43V30.2727H67.5427V43H68.5427ZM68.0427 30.7727H70.7336V29.7727H68.0427V30.7727ZM75.2468 30.2727L75.7233 30.1212L75.6125 29.7727H75.2468V30.2727ZM78.323 39.9425L77.8465 40.094L77.9574 40.4425H78.323V39.9425ZM78.4411 39.9425V40.4425H78.8065L78.9175 40.0943L78.4411 39.9425ZM81.5235 30.2727V29.7727H81.1581L81.0471 30.1209L81.5235 30.2727ZM84.5064 30.2727L84.9791 30.4357L85.2077 29.7727H84.5064V30.2727ZM80.119 43V43.5H80.4755L80.5917 43.163L80.119 43ZM76.6513 43L76.1787 43.1632L76.295 43.5H76.6513V43ZM72.2577 30.2727V29.7727H71.5561L71.785 30.4359L72.2577 30.2727ZM74.7704 30.4243L77.8465 40.094L78.7995 39.7909L75.7233 30.1212L74.7704 30.4243ZM78.323 40.4425H78.4411V39.4425H78.323V40.4425ZM78.9175 40.0943L81.9999 30.4246L81.0471 30.1209L77.9647 39.7906L78.9175 40.0943ZM81.5235 30.7727H84.5064V29.7727H81.5235V30.7727ZM84.0337 30.1098L79.6463 42.837L80.5917 43.163L84.9791 30.4357L84.0337 30.1098ZM80.119 42.5H76.6513V43.5H80.119V42.5ZM77.124 42.8368L72.7303 30.1096L71.785 30.4359L76.1787 43.1632L77.124 42.8368ZM72.2577 30.7727H75.2468V29.7727H72.2577V30.7727ZM86.0383 43H85.5383V43.5H86.0383V43ZM86.0383 30.2727V29.7727H85.5383V30.2727H86.0383ZM94.6143 30.2727H95.1143V29.7727H94.6143V30.2727ZM94.6143 32.4913V32.9913H95.1143V32.4913H94.6143ZM88.7292 32.4913V31.9913H88.2292V32.4913H88.7292ZM88.7292 35.524H88.2292V36.024H88.7292V35.524ZM94.1731 35.524H94.6731V35.024H94.1731V35.524ZM94.1731 37.7425V38.2425H94.6731V37.7425H94.1731ZM88.7292 37.7425V37.2425H88.2292V37.7425H88.7292ZM88.7292 40.7814H88.2292V41.2814H88.7292V40.7814ZM94.6392 40.7814H95.1392V40.2814H94.6392V40.7814ZM94.6392 43V43.5H95.1392V43H94.6392ZM86.5383 43V30.2727H85.5383V43H86.5383ZM86.0383 30.7727H94.6143V29.7727H86.0383V30.7727ZM94.1143 30.2727V32.4913H95.1143V30.2727H94.1143ZM94.6143 31.9913H88.7292V32.9913H94.6143V31.9913ZM88.2292 32.4913V35.524H89.2292V32.4913H88.2292ZM88.7292 36.024H94.1731V35.024H88.7292V36.024ZM93.6731 35.524V37.7425H94.6731V35.524H93.6731ZM94.1731 37.2425H88.7292V38.2425H94.1731V37.2425ZM88.2292 37.7425V40.7814H89.2292V37.7425H88.2292ZM88.7292 41.2814H94.6392V40.2814H88.7292V41.2814ZM94.1392 40.7814V43H95.1392V40.7814H94.1392ZM94.6392 42.5H86.0383V43.5H94.6392V42.5Z" fill="black" fill-opacity="0.02"/>
</g>
<defs>
<filter id="filter0_d_4_7" x="9.25833" y="10.9929" width="87.6098" height="18.2365" filterUnits="userSpaceOnUse" color-interpolation-filters="sRGB">
<feFlood flood-opacity="0" result="BackgroundImageFix"/>
<feColorMatrix in="SourceAlpha" type="matrix" values="0 0 0 0 0 0 0 0 0 0 0 0 0 0 0 0 0 0 127 0" result="hardAlpha"/>
<feOffset dy="2"/>
<feGaussianBlur stdDeviation="1"/>
<feComposite in2="hardAlpha" operator="out"/>
<feColorMatrix type="matrix" values="0 0 0 0 0 0 0 0 0 0 0 0 0 0 0 0 0 0 0.25 0"/>
<feBlend mode="normal" in2="BackgroundImageFix" result="effect1_dropShadow_4_7"/>
<feBlend mode="normal" in="SourceGraphic" in2="effect1_dropShadow_4_7" result="shape"/>
</filter>
<filter id="filter1_i_4_7" x="9.235" y="30.0987" width="85.4042" height="14.0753" filterUnits="userSpaceOnUse" color-interpolation-filters="sRGB">
<feFlood flood-opacity="0" result="BackgroundImageFix"/>
<feBlend mode="normal" in="SourceGraphic" in2="BackgroundImageFix" result="shape"/>
<feColorMatrix in="SourceAlpha" type="matrix" values="0 0 0 0 0 0 0 0 0 0 0 0 0 0 0 0 0 0 127 0" result="hardAlpha"/>
<feOffset dy="1"/>
<feGaussianBlur stdDeviation="0.5"/>
<feComposite in2="hardAlpha" operator="arithmetic" k2="-1" k3="1"/>
<feColorMatrix type="matrix" values="0 0 0 0 0 0 0 0 0 0 0 0 0 0 0 0 0 0 0.25 0"/>
<feBlend mode="normal" in2="shape" result="effect1_innerShadow_4_7"/>
</filter>
<linearGradient id="paint0_linear_4_7" x1="14.5" y1="18" x2="96" y2="18" gradientUnits="userSpaceOnUse">
<stop stop-color="#D74F8C"/>
<stop offset="0.489583" stop-color="#B4427A"/>
<stop offset="1" stop-color="#E6867F"/>
</linearGradient>
<linearGradient id="paint1_linear_4_7" x1="11.5" y1="5.4" x2="68.3191" y2="45.155" gradientUnits="userSpaceOnUse">
<stop stop-color="#5F1C56"/>
<stop offset="0.104167" stop-color="#BF477F"/>
<stop offset="0.203125" stop-color="white"/>
<stop offset="0.296875" stop-color="#E7897E"/>
<stop offset="0.864583" stop-opacity="0"/>
<stop offset="0.961739" stop-opacity="0"/>
</linearGradient>
<linearGradient id="paint2_linear_4_7" x1="12.6047" y1="36.0435" x2="96" y2="36.0435" gradientUnits="userSpaceOnUse">
<stop stop-color="#D74F8C"/>
<stop offset="0.489583" stop-color="#B4427A"/>
<stop offset="1" stop-color="#E6867F"/>
</linearGradient>
<clipPath id="clip0_4_7">
<rect width="104" height="54" fill="white"/>
</clipPath>
</defs>
</svg>
