<svg width="54" height="54" viewBox="0 0 54 54" fill="none" xmlns="http://www.w3.org/2000/svg">
<g filter="url(#filter0_i_1_42)">
<path fill-rule="evenodd" clip-rule="evenodd" d="M10 0C4.47715 0 0 4.47715 0 10V44C0 49.5228 4.47715 54 10 54H44C49.5228 54 54 49.5228 54 44V10C54 4.47715 49.5228 0 44 0H10ZM28.4453 31.0373C29.485 31.5083 30.2619 32.3058 30.776 33.4297C30.9633 33.8241 31.0934 34.2791 31.1664 34.7948C31.2722 35.5425 31.2205 36.2928 31.0114 37.0457C30.8023 37.7986 30.3438 38.5078 29.6358 39.1734C28.9259 39.8262 27.9253 40.3294 26.634 40.683C26.4314 40.738 26.1302 40.7938 25.7306 40.8503C24.1448 41.0746 22.8885 40.7461 21.9616 39.8646C21.0458 38.9684 20.5094 37.966 20.3526 36.8572C20.2997 36.4834 20.2881 36.2154 20.3178 36.0534C20.3848 35.5048 20.6499 34.8689 21.1131 34.1458C21.5744 33.4099 22.1223 32.7275 22.7566 32.0986C23.4019 31.4549 23.9596 31.0276 24.4294 30.8164C24.7758 30.6622 25.1102 30.5623 25.4325 30.5167C26.4123 30.3781 27.4166 30.5516 28.4453 31.0373ZM25.6001 25.0093C24.806 25.3452 24.1896 25.6822 23.7509 26.0205C23.8702 24.9121 24.5037 23.5337 25.6513 21.8853C26.8118 20.2352 27.949 18.7921 29.0629 17.5562C30.1768 16.3202 31.0048 15.4338 31.5469 14.8968L35.3618 6.4471C31.1836 7.8667 27.7072 9.69329 24.9329 11.9269C22.1714 14.1586 20.0783 16.4207 18.6536 18.7132C17.24 20.991 16.1182 23.2866 15.2883 25.6002C14.8539 26.8057 14.4798 28.3447 14.1661 30.217C13.8524 32.0893 13.6473 33.9396 13.5509 35.768C13.4545 37.5964 13.4848 39.065 13.6416 40.1738C13.7365 40.8442 13.8573 41.3268 14.0043 41.6216C14.669 42.9741 15.6002 44.118 16.7976 45.0532C17.9933 45.9755 19.4269 46.6275 21.0984 47.0091C22.7699 47.3907 24.6242 47.4374 26.6612 47.1492C27.2413 47.0672 27.6907 46.9904 28.0094 46.919C28.7829 46.8096 29.6745 46.6046 30.684 46.3039C31.6935 46.0033 32.7797 45.5012 33.9426 44.7975C35.1184 44.092 36.1896 43.1119 37.1562 41.8574C38.1228 40.6028 38.8191 39.0644 39.2451 37.2419C39.4617 36.3565 39.5007 35.4239 39.3621 34.444C39.0977 32.5746 38.1115 30.6232 36.4035 28.5898C35.6608 27.7086 34.9077 26.9867 34.1443 26.424C33.3919 25.8466 32.7222 25.4351 32.1351 25.1894C31.5462 24.9308 31.1035 24.7764 30.8071 24.7263C30.5089 24.6633 30.3009 24.6335 30.183 24.6371C29.6624 24.303 28.9186 24.2044 27.9516 24.3412C27.191 24.4489 26.4071 24.6715 25.6001 25.0093Z" fill="#929292"/>
</g>
<defs>
<filter id="filter0_i_1_42" x="0" y="0" width="54" height="56" filterUnits="userSpaceOnUse" color-interpolation-filters="sRGB">
<feFlood flood-opacity="0" result="BackgroundImageFix"/>
<feBlend mode="normal" in="SourceGraphic" in2="BackgroundImageFix" result="shape"/>
<feColorMatrix in="SourceAlpha" type="matrix" values="0 0 0 0 0 0 0 0 0 0 0 0 0 0 0 0 0 0 127 0" result="hardAlpha"/>
<feOffset dy="2"/>
<feGaussianBlur stdDeviation="1"/>
<feComposite in2="hardAlpha" operator="arithmetic" k2="-1" k3="1"/>
<feColorMatrix type="matrix" values="0 0 0 0 1 0 0 0 0 1 0 0 0 0 1 0 0 0 0.4 0"/>
<feBlend mode="normal" in2="shape" result="effect1_innerShadow_1_42"/>
</filter>
</defs>
</svg>
